<mxfile host="65bd71144e">
    <diagram id="6ro1e_xl21asCQvHFW2P" name="Page-1">
        <mxGraphModel dx="1091" dy="561" grid="1" gridSize="10" guides="1" tooltips="1" connect="1" arrows="1" fold="1" page="1" pageScale="1" pageWidth="850" pageHeight="1100" math="0" shadow="0">
            <root>
                <mxCell id="0"/>
                <mxCell id="1" parent="0"/>
                <mxCell id="2" value="A" style="ellipse;whiteSpace=wrap;html=1;aspect=fixed;" vertex="1" parent="1">
                    <mxGeometry x="320" y="180" width="30" height="30" as="geometry"/>
                </mxCell>
                <mxCell id="3" value="B" style="ellipse;whiteSpace=wrap;html=1;aspect=fixed;" vertex="1" parent="1">
                    <mxGeometry x="410" y="180" width="30" height="30" as="geometry"/>
                </mxCell>
                <mxCell id="4" value="C" style="ellipse;whiteSpace=wrap;html=1;aspect=fixed;" vertex="1" parent="1">
                    <mxGeometry x="500" y="180" width="30" height="30" as="geometry"/>
                </mxCell>
                <mxCell id="5" value="D" style="ellipse;whiteSpace=wrap;html=1;aspect=fixed;" vertex="1" parent="1">
                    <mxGeometry x="320" y="270" width="30" height="30" as="geometry"/>
                </mxCell>
                <mxCell id="6" value="E" style="ellipse;whiteSpace=wrap;html=1;aspect=fixed;" vertex="1" parent="1">
                    <mxGeometry x="410" y="270" width="30" height="30" as="geometry"/>
                </mxCell>
                <mxCell id="7" value="F" style="ellipse;whiteSpace=wrap;html=1;aspect=fixed;" vertex="1" parent="1">
                    <mxGeometry x="500" y="270" width="30" height="30" as="geometry"/>
                </mxCell>
                <mxCell id="8" value="G&lt;span style=&quot;color: rgba(0, 0, 0, 0); font-family: monospace; font-size: 0px; text-align: start;&quot;&gt;%3CmxGraphModel%3E%3Croot%3E%3CmxCell%20id%3D%220%22%2F%3E%3CmxCell%20id%3D%221%22%20parent%3D%220%22%2F%3E%3CmxCell%20id%3D%222%22%20value%3D%22A%22%20style%3D%22ellipse%3BwhiteSpace%3Dwrap%3Bhtml%3D1%3Baspect%3Dfixed%3B%22%20vertex%3D%221%22%20parent%3D%221%22%3E%3CmxGeometry%20x%3D%22230%22%20y%3D%22190%22%20width%3D%2230%22%20height%3D%2230%22%20as%3D%22geometry%22%2F%3E%3C%2FmxCell%3E%3C%2Froot%3E%3C%2FmxGraphModel%3E&lt;/span&gt;" style="ellipse;whiteSpace=wrap;html=1;aspect=fixed;" vertex="1" parent="1">
                    <mxGeometry x="320" y="360" width="30" height="30" as="geometry"/>
                </mxCell>
                <mxCell id="9" value="H" style="ellipse;whiteSpace=wrap;html=1;aspect=fixed;" vertex="1" parent="1">
                    <mxGeometry x="410" y="360" width="30" height="30" as="geometry"/>
                </mxCell>
                <mxCell id="10" value="I" style="ellipse;whiteSpace=wrap;html=1;aspect=fixed;" vertex="1" parent="1">
                    <mxGeometry x="500" y="360" width="30" height="30" as="geometry"/>
                </mxCell>
                <mxCell id="11" value="" style="endArrow=none;html=1;entryX=0;entryY=0.5;entryDx=0;entryDy=0;exitX=1;exitY=0.5;exitDx=0;exitDy=0;" edge="1" parent="1" source="3" target="4">
                    <mxGeometry width="50" height="50" relative="1" as="geometry">
                        <mxPoint x="520" y="410" as="sourcePoint"/>
                        <mxPoint x="610" y="290" as="targetPoint"/>
                    </mxGeometry>
                </mxCell>
                <mxCell id="12" value="" style="endArrow=none;html=1;entryX=0;entryY=0.5;entryDx=0;entryDy=0;exitX=1;exitY=0.5;exitDx=0;exitDy=0;" edge="1" parent="1" source="2" target="3">
                    <mxGeometry width="50" height="50" relative="1" as="geometry">
                        <mxPoint x="450.00000000001364" y="205" as="sourcePoint"/>
                        <mxPoint x="509.9999999999868" y="205" as="targetPoint"/>
                    </mxGeometry>
                </mxCell>
                <mxCell id="13" value="" style="endArrow=none;html=1;entryX=0;entryY=1;entryDx=0;entryDy=0;exitX=1;exitY=0;exitDx=0;exitDy=0;" edge="1" parent="1" source="6" target="4">
                    <mxGeometry width="50" height="50" relative="1" as="geometry">
                        <mxPoint x="460.00000000001364" y="215" as="sourcePoint"/>
                        <mxPoint x="519.9999999999868" y="215" as="targetPoint"/>
                    </mxGeometry>
                </mxCell>
                <mxCell id="14" value="" style="endArrow=none;html=1;entryX=0.5;entryY=0;entryDx=0;entryDy=0;exitX=0.5;exitY=1;exitDx=0;exitDy=0;" edge="1" parent="1" source="2" target="5">
                    <mxGeometry width="50" height="50" relative="1" as="geometry">
                        <mxPoint x="470.00000000001364" y="225" as="sourcePoint"/>
                        <mxPoint x="529.9999999999868" y="225" as="targetPoint"/>
                    </mxGeometry>
                </mxCell>
                <mxCell id="15" value="" style="endArrow=none;html=1;entryX=0;entryY=0;entryDx=0;entryDy=0;exitX=1;exitY=1;exitDx=0;exitDy=0;" edge="1" parent="1" source="2" target="6">
                    <mxGeometry width="50" height="50" relative="1" as="geometry">
                        <mxPoint x="480.00000000001364" y="235" as="sourcePoint"/>
                        <mxPoint x="539.9999999999868" y="235" as="targetPoint"/>
                    </mxGeometry>
                </mxCell>
                <mxCell id="16" value="" style="endArrow=none;html=1;entryX=0.5;entryY=0;entryDx=0;entryDy=0;exitX=0.5;exitY=1;exitDx=0;exitDy=0;" edge="1" parent="1" source="7" target="10">
                    <mxGeometry width="50" height="50" relative="1" as="geometry">
                        <mxPoint x="490.00000000001364" y="245" as="sourcePoint"/>
                        <mxPoint x="549.9999999999868" y="245" as="targetPoint"/>
                    </mxGeometry>
                </mxCell>
                <mxCell id="17" value="" style="endArrow=none;html=1;entryX=0.5;entryY=0;entryDx=0;entryDy=0;exitX=0.5;exitY=1;exitDx=0;exitDy=0;" edge="1" parent="1" source="5" target="8">
                    <mxGeometry width="50" height="50" relative="1" as="geometry">
                        <mxPoint x="500.00000000001364" y="255" as="sourcePoint"/>
                        <mxPoint x="559.9999999999868" y="255" as="targetPoint"/>
                    </mxGeometry>
                </mxCell>
                <mxCell id="18" value="" style="endArrow=none;html=1;entryX=0;entryY=0.5;entryDx=0;entryDy=0;exitX=1;exitY=0.5;exitDx=0;exitDy=0;" edge="1" parent="1" source="8" target="9">
                    <mxGeometry width="50" height="50" relative="1" as="geometry">
                        <mxPoint x="510.00000000001364" y="265" as="sourcePoint"/>
                        <mxPoint x="569.9999999999868" y="265" as="targetPoint"/>
                    </mxGeometry>
                </mxCell>
                <mxCell id="19" value="" style="endArrow=none;html=1;exitX=0.5;exitY=1;exitDx=0;exitDy=0;entryX=0.5;entryY=0;entryDx=0;entryDy=0;" edge="1" parent="1" source="6" target="9">
                    <mxGeometry width="50" height="50" relative="1" as="geometry">
                        <mxPoint x="520.0000000000136" y="275" as="sourcePoint"/>
                        <mxPoint x="570" y="290" as="targetPoint"/>
                    </mxGeometry>
                </mxCell>
                <mxCell id="20" value="" style="endArrow=none;html=1;entryX=0;entryY=0;entryDx=0;entryDy=0;exitX=1;exitY=1;exitDx=0;exitDy=0;" edge="1" parent="1" source="6" target="10">
                    <mxGeometry width="50" height="50" relative="1" as="geometry">
                        <mxPoint x="530.0000000000136" y="285" as="sourcePoint"/>
                        <mxPoint x="589.9999999999868" y="285" as="targetPoint"/>
                    </mxGeometry>
                </mxCell>
                <mxCell id="21" value="" style="endArrow=none;html=1;entryX=0;entryY=0;entryDx=0;entryDy=0;exitX=1;exitY=1;exitDx=0;exitDy=0;" edge="1" parent="1" source="5" target="9">
                    <mxGeometry width="50" height="50" relative="1" as="geometry">
                        <mxPoint x="445.6066017178173" y="305.60660171781717" as="sourcePoint"/>
                        <mxPoint x="514.3933982821829" y="374.39339828218294" as="targetPoint"/>
                    </mxGeometry>
                </mxCell>
                <mxCell id="22" value="A" style="ellipse;whiteSpace=wrap;html=1;aspect=fixed;" vertex="1" parent="1">
                    <mxGeometry x="320" y="430" width="30" height="30" as="geometry"/>
                </mxCell>
                <mxCell id="23" value="B" style="ellipse;whiteSpace=wrap;html=1;aspect=fixed;" vertex="1" parent="1">
                    <mxGeometry x="410" y="430" width="30" height="30" as="geometry"/>
                </mxCell>
                <mxCell id="24" value="C" style="ellipse;whiteSpace=wrap;html=1;aspect=fixed;fillColor=#dae8fc;strokeColor=#6c8ebf;" vertex="1" parent="1">
                    <mxGeometry x="500" y="430" width="30" height="30" as="geometry"/>
                </mxCell>
                <mxCell id="25" value="D" style="ellipse;whiteSpace=wrap;html=1;aspect=fixed;" vertex="1" parent="1">
                    <mxGeometry x="320" y="520" width="30" height="30" as="geometry"/>
                </mxCell>
                <mxCell id="26" value="E" style="ellipse;whiteSpace=wrap;html=1;aspect=fixed;" vertex="1" parent="1">
                    <mxGeometry x="410" y="520" width="30" height="30" as="geometry"/>
                </mxCell>
                <mxCell id="27" value="F" style="ellipse;whiteSpace=wrap;html=1;aspect=fixed;" vertex="1" parent="1">
                    <mxGeometry x="500" y="520" width="30" height="30" as="geometry"/>
                </mxCell>
                <mxCell id="28" value="G&lt;span style=&quot;color: rgba(0, 0, 0, 0); font-family: monospace; font-size: 0px; text-align: start;&quot;&gt;%3CmxGraphModel%3E%3Croot%3E%3CmxCell%20id%3D%220%22%2F%3E%3CmxCell%20id%3D%221%22%20parent%3D%220%22%2F%3E%3CmxCell%20id%3D%222%22%20value%3D%22A%22%20style%3D%22ellipse%3BwhiteSpace%3Dwrap%3Bhtml%3D1%3Baspect%3Dfixed%3B%22%20vertex%3D%221%22%20parent%3D%221%22%3E%3CmxGeometry%20x%3D%22230%22%20y%3D%22190%22%20width%3D%2230%22%20height%3D%2230%22%20as%3D%22geometry%22%2F%3E%3C%2FmxCell%3E%3C%2Froot%3E%3C%2FmxGraphModel%3E&lt;/span&gt;" style="ellipse;whiteSpace=wrap;html=1;aspect=fixed;" vertex="1" parent="1">
                    <mxGeometry x="320" y="610" width="30" height="30" as="geometry"/>
                </mxCell>
                <mxCell id="29" value="H" style="ellipse;whiteSpace=wrap;html=1;aspect=fixed;" vertex="1" parent="1">
                    <mxGeometry x="410" y="610" width="30" height="30" as="geometry"/>
                </mxCell>
                <mxCell id="30" value="I" style="ellipse;whiteSpace=wrap;html=1;aspect=fixed;" vertex="1" parent="1">
                    <mxGeometry x="500" y="610" width="30" height="30" as="geometry"/>
                </mxCell>
                <mxCell id="31" value="" style="endArrow=none;html=1;entryX=0;entryY=0.5;entryDx=0;entryDy=0;exitX=1;exitY=0.5;exitDx=0;exitDy=0;" edge="1" parent="1" source="23" target="24">
                    <mxGeometry width="50" height="50" relative="1" as="geometry">
                        <mxPoint x="520" y="660" as="sourcePoint"/>
                        <mxPoint x="610" y="540" as="targetPoint"/>
                    </mxGeometry>
                </mxCell>
                <mxCell id="32" value="" style="endArrow=none;html=1;entryX=0;entryY=0.5;entryDx=0;entryDy=0;exitX=1;exitY=0.5;exitDx=0;exitDy=0;" edge="1" parent="1" source="22" target="23">
                    <mxGeometry width="50" height="50" relative="1" as="geometry">
                        <mxPoint x="450.00000000001364" y="455" as="sourcePoint"/>
                        <mxPoint x="509.9999999999868" y="455" as="targetPoint"/>
                    </mxGeometry>
                </mxCell>
                <mxCell id="33" value="" style="endArrow=none;html=1;entryX=0;entryY=1;entryDx=0;entryDy=0;exitX=1;exitY=0;exitDx=0;exitDy=0;" edge="1" parent="1" source="26" target="24">
                    <mxGeometry width="50" height="50" relative="1" as="geometry">
                        <mxPoint x="460.00000000001364" y="465" as="sourcePoint"/>
                        <mxPoint x="519.9999999999868" y="465" as="targetPoint"/>
                    </mxGeometry>
                </mxCell>
                <mxCell id="34" value="" style="endArrow=none;html=1;entryX=0.5;entryY=0;entryDx=0;entryDy=0;exitX=0.5;exitY=1;exitDx=0;exitDy=0;" edge="1" parent="1" source="22" target="25">
                    <mxGeometry width="50" height="50" relative="1" as="geometry">
                        <mxPoint x="470.00000000001364" y="475" as="sourcePoint"/>
                        <mxPoint x="529.9999999999868" y="475" as="targetPoint"/>
                    </mxGeometry>
                </mxCell>
                <mxCell id="35" value="" style="endArrow=none;html=1;entryX=0;entryY=0;entryDx=0;entryDy=0;exitX=1;exitY=1;exitDx=0;exitDy=0;" edge="1" parent="1" source="22" target="26">
                    <mxGeometry width="50" height="50" relative="1" as="geometry">
                        <mxPoint x="480.00000000001364" y="485" as="sourcePoint"/>
                        <mxPoint x="539.9999999999868" y="485" as="targetPoint"/>
                    </mxGeometry>
                </mxCell>
                <mxCell id="36" value="" style="endArrow=none;html=1;entryX=0.5;entryY=0;entryDx=0;entryDy=0;exitX=0.5;exitY=1;exitDx=0;exitDy=0;" edge="1" parent="1" source="27" target="30">
                    <mxGeometry width="50" height="50" relative="1" as="geometry">
                        <mxPoint x="490.00000000001364" y="495" as="sourcePoint"/>
                        <mxPoint x="549.9999999999868" y="495" as="targetPoint"/>
                    </mxGeometry>
                </mxCell>
                <mxCell id="37" value="" style="endArrow=none;html=1;entryX=0.5;entryY=0;entryDx=0;entryDy=0;exitX=0.5;exitY=1;exitDx=0;exitDy=0;" edge="1" parent="1" source="25" target="28">
                    <mxGeometry width="50" height="50" relative="1" as="geometry">
                        <mxPoint x="500.00000000001364" y="505" as="sourcePoint"/>
                        <mxPoint x="559.9999999999868" y="505" as="targetPoint"/>
                    </mxGeometry>
                </mxCell>
                <mxCell id="38" value="" style="endArrow=none;html=1;entryX=0;entryY=0.5;entryDx=0;entryDy=0;exitX=1;exitY=0.5;exitDx=0;exitDy=0;" edge="1" parent="1" source="28" target="29">
                    <mxGeometry width="50" height="50" relative="1" as="geometry">
                        <mxPoint x="510.00000000001364" y="515" as="sourcePoint"/>
                        <mxPoint x="569.9999999999868" y="515" as="targetPoint"/>
                    </mxGeometry>
                </mxCell>
                <mxCell id="39" value="" style="endArrow=none;html=1;exitX=0.5;exitY=1;exitDx=0;exitDy=0;entryX=0.5;entryY=0;entryDx=0;entryDy=0;" edge="1" parent="1" source="26" target="29">
                    <mxGeometry width="50" height="50" relative="1" as="geometry">
                        <mxPoint x="520.0000000000136" y="525" as="sourcePoint"/>
                        <mxPoint x="570" y="540" as="targetPoint"/>
                    </mxGeometry>
                </mxCell>
                <mxCell id="40" value="" style="endArrow=none;html=1;entryX=0;entryY=0;entryDx=0;entryDy=0;exitX=1;exitY=1;exitDx=0;exitDy=0;" edge="1" parent="1" source="26" target="30">
                    <mxGeometry width="50" height="50" relative="1" as="geometry">
                        <mxPoint x="530.0000000000136" y="535" as="sourcePoint"/>
                        <mxPoint x="589.9999999999868" y="535" as="targetPoint"/>
                    </mxGeometry>
                </mxCell>
                <mxCell id="41" value="" style="endArrow=none;html=1;entryX=0;entryY=0;entryDx=0;entryDy=0;exitX=1;exitY=1;exitDx=0;exitDy=0;" edge="1" parent="1" source="25" target="29">
                    <mxGeometry width="50" height="50" relative="1" as="geometry">
                        <mxPoint x="445.6066017178173" y="555.6066017178172" as="sourcePoint"/>
                        <mxPoint x="514.3933982821829" y="624.3933982821829" as="targetPoint"/>
                    </mxGeometry>
                </mxCell>
                <mxCell id="62" value="A" style="ellipse;whiteSpace=wrap;html=1;aspect=fixed;" vertex="1" parent="1">
                    <mxGeometry x="320" y="680" width="30" height="30" as="geometry"/>
                </mxCell>
                <mxCell id="63" value="B" style="ellipse;whiteSpace=wrap;html=1;aspect=fixed;fillColor=#dae8fc;strokeColor=#6c8ebf;" vertex="1" parent="1">
                    <mxGeometry x="410" y="680" width="30" height="30" as="geometry"/>
                </mxCell>
                <mxCell id="64" value="C" style="ellipse;whiteSpace=wrap;html=1;aspect=fixed;fillColor=#1ba1e2;fontColor=#ffffff;strokeColor=#006EAF;" vertex="1" parent="1">
                    <mxGeometry x="500" y="680" width="30" height="30" as="geometry"/>
                </mxCell>
                <mxCell id="65" value="D" style="ellipse;whiteSpace=wrap;html=1;aspect=fixed;" vertex="1" parent="1">
                    <mxGeometry x="320" y="770" width="30" height="30" as="geometry"/>
                </mxCell>
                <mxCell id="66" value="E" style="ellipse;whiteSpace=wrap;html=1;aspect=fixed;fillColor=#dae8fc;strokeColor=#6c8ebf;" vertex="1" parent="1">
                    <mxGeometry x="410" y="770" width="30" height="30" as="geometry"/>
                </mxCell>
                <mxCell id="67" value="F" style="ellipse;whiteSpace=wrap;html=1;aspect=fixed;" vertex="1" parent="1">
                    <mxGeometry x="500" y="770" width="30" height="30" as="geometry"/>
                </mxCell>
                <mxCell id="68" value="G&lt;span style=&quot;color: rgba(0, 0, 0, 0); font-family: monospace; font-size: 0px; text-align: start;&quot;&gt;%3CmxGraphModel%3E%3Croot%3E%3CmxCell%20id%3D%220%22%2F%3E%3CmxCell%20id%3D%221%22%20parent%3D%220%22%2F%3E%3CmxCell%20id%3D%222%22%20value%3D%22A%22%20style%3D%22ellipse%3BwhiteSpace%3Dwrap%3Bhtml%3D1%3Baspect%3Dfixed%3B%22%20vertex%3D%221%22%20parent%3D%221%22%3E%3CmxGeometry%20x%3D%22230%22%20y%3D%22190%22%20width%3D%2230%22%20height%3D%2230%22%20as%3D%22geometry%22%2F%3E%3C%2FmxCell%3E%3C%2Froot%3E%3C%2FmxGraphModel%3E&lt;/span&gt;" style="ellipse;whiteSpace=wrap;html=1;aspect=fixed;" vertex="1" parent="1">
                    <mxGeometry x="320" y="860" width="30" height="30" as="geometry"/>
                </mxCell>
                <mxCell id="69" value="H" style="ellipse;whiteSpace=wrap;html=1;aspect=fixed;" vertex="1" parent="1">
                    <mxGeometry x="410" y="860" width="30" height="30" as="geometry"/>
                </mxCell>
                <mxCell id="70" value="I" style="ellipse;whiteSpace=wrap;html=1;aspect=fixed;" vertex="1" parent="1">
                    <mxGeometry x="500" y="860" width="30" height="30" as="geometry"/>
                </mxCell>
                <mxCell id="71" value="" style="endArrow=none;html=1;entryX=0;entryY=0.5;entryDx=0;entryDy=0;exitX=1;exitY=0.5;exitDx=0;exitDy=0;" edge="1" parent="1" source="63" target="64">
                    <mxGeometry width="50" height="50" relative="1" as="geometry">
                        <mxPoint x="520" y="910" as="sourcePoint"/>
                        <mxPoint x="610" y="790" as="targetPoint"/>
                    </mxGeometry>
                </mxCell>
                <mxCell id="72" value="" style="endArrow=none;html=1;entryX=0;entryY=0.5;entryDx=0;entryDy=0;exitX=1;exitY=0.5;exitDx=0;exitDy=0;" edge="1" parent="1" source="62" target="63">
                    <mxGeometry width="50" height="50" relative="1" as="geometry">
                        <mxPoint x="450.00000000001364" y="705" as="sourcePoint"/>
                        <mxPoint x="509.9999999999868" y="705" as="targetPoint"/>
                    </mxGeometry>
                </mxCell>
                <mxCell id="73" value="" style="endArrow=none;html=1;entryX=0;entryY=1;entryDx=0;entryDy=0;exitX=1;exitY=0;exitDx=0;exitDy=0;" edge="1" parent="1" source="66" target="64">
                    <mxGeometry width="50" height="50" relative="1" as="geometry">
                        <mxPoint x="460.00000000001364" y="715" as="sourcePoint"/>
                        <mxPoint x="519.9999999999868" y="715" as="targetPoint"/>
                    </mxGeometry>
                </mxCell>
                <mxCell id="74" value="" style="endArrow=none;html=1;entryX=0.5;entryY=0;entryDx=0;entryDy=0;exitX=0.5;exitY=1;exitDx=0;exitDy=0;" edge="1" parent="1" source="62" target="65">
                    <mxGeometry width="50" height="50" relative="1" as="geometry">
                        <mxPoint x="470.00000000001364" y="725" as="sourcePoint"/>
                        <mxPoint x="529.9999999999868" y="725" as="targetPoint"/>
                    </mxGeometry>
                </mxCell>
                <mxCell id="75" value="" style="endArrow=none;html=1;entryX=0;entryY=0;entryDx=0;entryDy=0;exitX=1;exitY=1;exitDx=0;exitDy=0;" edge="1" parent="1" source="62" target="66">
                    <mxGeometry width="50" height="50" relative="1" as="geometry">
                        <mxPoint x="480.00000000001364" y="735" as="sourcePoint"/>
                        <mxPoint x="539.9999999999868" y="735" as="targetPoint"/>
                    </mxGeometry>
                </mxCell>
                <mxCell id="76" value="" style="endArrow=none;html=1;entryX=0.5;entryY=0;entryDx=0;entryDy=0;exitX=0.5;exitY=1;exitDx=0;exitDy=0;" edge="1" parent="1" source="67" target="70">
                    <mxGeometry width="50" height="50" relative="1" as="geometry">
                        <mxPoint x="490.00000000001364" y="745" as="sourcePoint"/>
                        <mxPoint x="549.9999999999868" y="745" as="targetPoint"/>
                    </mxGeometry>
                </mxCell>
                <mxCell id="77" value="" style="endArrow=none;html=1;entryX=0.5;entryY=0;entryDx=0;entryDy=0;exitX=0.5;exitY=1;exitDx=0;exitDy=0;" edge="1" parent="1" source="65" target="68">
                    <mxGeometry width="50" height="50" relative="1" as="geometry">
                        <mxPoint x="500.00000000001364" y="755" as="sourcePoint"/>
                        <mxPoint x="559.9999999999868" y="755" as="targetPoint"/>
                    </mxGeometry>
                </mxCell>
                <mxCell id="78" value="" style="endArrow=none;html=1;entryX=0;entryY=0.5;entryDx=0;entryDy=0;exitX=1;exitY=0.5;exitDx=0;exitDy=0;" edge="1" parent="1" source="68" target="69">
                    <mxGeometry width="50" height="50" relative="1" as="geometry">
                        <mxPoint x="510.00000000001364" y="765" as="sourcePoint"/>
                        <mxPoint x="569.9999999999868" y="765" as="targetPoint"/>
                    </mxGeometry>
                </mxCell>
                <mxCell id="79" value="" style="endArrow=none;html=1;exitX=0.5;exitY=1;exitDx=0;exitDy=0;entryX=0.5;entryY=0;entryDx=0;entryDy=0;" edge="1" parent="1" source="66" target="69">
                    <mxGeometry width="50" height="50" relative="1" as="geometry">
                        <mxPoint x="520.0000000000136" y="775" as="sourcePoint"/>
                        <mxPoint x="570" y="790" as="targetPoint"/>
                    </mxGeometry>
                </mxCell>
                <mxCell id="80" value="" style="endArrow=none;html=1;entryX=0;entryY=0;entryDx=0;entryDy=0;exitX=1;exitY=1;exitDx=0;exitDy=0;" edge="1" parent="1" source="66" target="70">
                    <mxGeometry width="50" height="50" relative="1" as="geometry">
                        <mxPoint x="530.0000000000136" y="785" as="sourcePoint"/>
                        <mxPoint x="589.9999999999868" y="785" as="targetPoint"/>
                    </mxGeometry>
                </mxCell>
                <mxCell id="81" value="" style="endArrow=none;html=1;entryX=0;entryY=0;entryDx=0;entryDy=0;exitX=1;exitY=1;exitDx=0;exitDy=0;" edge="1" parent="1" source="65" target="69">
                    <mxGeometry width="50" height="50" relative="1" as="geometry">
                        <mxPoint x="445.6066017178173" y="805.6066017178172" as="sourcePoint"/>
                        <mxPoint x="514.3933982821829" y="874.3933982821829" as="targetPoint"/>
                    </mxGeometry>
                </mxCell>
                <mxCell id="82" value="A" style="ellipse;whiteSpace=wrap;html=1;aspect=fixed;fillColor=#dae8fc;strokeColor=#6c8ebf;" vertex="1" parent="1">
                    <mxGeometry x="320" y="920" width="30" height="30" as="geometry"/>
                </mxCell>
                <mxCell id="83" value="B" style="ellipse;whiteSpace=wrap;html=1;aspect=fixed;fillColor=#1ba1e2;strokeColor=#006EAF;fontColor=#ffffff;fillStyle=auto;" vertex="1" parent="1">
                    <mxGeometry x="410" y="920" width="30" height="30" as="geometry"/>
                </mxCell>
                <mxCell id="84" value="C" style="ellipse;whiteSpace=wrap;html=1;aspect=fixed;fillColor=#1ba1e2;fontColor=#ffffff;strokeColor=#006EAF;" vertex="1" parent="1">
                    <mxGeometry x="500" y="920" width="30" height="30" as="geometry"/>
                </mxCell>
                <mxCell id="85" value="D" style="ellipse;whiteSpace=wrap;html=1;aspect=fixed;" vertex="1" parent="1">
                    <mxGeometry x="320" y="1010" width="30" height="30" as="geometry"/>
                </mxCell>
                <mxCell id="86" value="E" style="ellipse;whiteSpace=wrap;html=1;aspect=fixed;fillColor=#1ba1e2;strokeColor=#006EAF;fontColor=#ffffff;fillStyle=auto;" vertex="1" parent="1">
                    <mxGeometry x="410" y="1010" width="30" height="30" as="geometry"/>
                </mxCell>
                <mxCell id="87" value="F" style="ellipse;whiteSpace=wrap;html=1;aspect=fixed;" vertex="1" parent="1">
                    <mxGeometry x="500" y="1010" width="30" height="30" as="geometry"/>
                </mxCell>
                <mxCell id="88" value="G&lt;span style=&quot;color: rgba(0, 0, 0, 0); font-family: monospace; font-size: 0px; text-align: start;&quot;&gt;%3CmxGraphModel%3E%3Croot%3E%3CmxCell%20id%3D%220%22%2F%3E%3CmxCell%20id%3D%221%22%20parent%3D%220%22%2F%3E%3CmxCell%20id%3D%222%22%20value%3D%22A%22%20style%3D%22ellipse%3BwhiteSpace%3Dwrap%3Bhtml%3D1%3Baspect%3Dfixed%3B%22%20vertex%3D%221%22%20parent%3D%221%22%3E%3CmxGeometry%20x%3D%22230%22%20y%3D%22190%22%20width%3D%2230%22%20height%3D%2230%22%20as%3D%22geometry%22%2F%3E%3C%2FmxCell%3E%3C%2Froot%3E%3C%2FmxGraphModel%3E&lt;/span&gt;" style="ellipse;whiteSpace=wrap;html=1;aspect=fixed;" vertex="1" parent="1">
                    <mxGeometry x="320" y="1100" width="30" height="30" as="geometry"/>
                </mxCell>
                <mxCell id="89" value="H" style="ellipse;whiteSpace=wrap;html=1;aspect=fixed;fillColor=#dae8fc;strokeColor=#6c8ebf;" vertex="1" parent="1">
                    <mxGeometry x="410" y="1100" width="30" height="30" as="geometry"/>
                </mxCell>
                <mxCell id="90" value="I" style="ellipse;whiteSpace=wrap;html=1;aspect=fixed;fillColor=#dae8fc;strokeColor=#6c8ebf;" vertex="1" parent="1">
                    <mxGeometry x="500" y="1100" width="30" height="30" as="geometry"/>
                </mxCell>
                <mxCell id="91" value="" style="endArrow=none;html=1;entryX=0;entryY=0.5;entryDx=0;entryDy=0;exitX=1;exitY=0.5;exitDx=0;exitDy=0;" edge="1" parent="1" source="83" target="84">
                    <mxGeometry width="50" height="50" relative="1" as="geometry">
                        <mxPoint x="520" y="1150" as="sourcePoint"/>
                        <mxPoint x="610" y="1030" as="targetPoint"/>
                    </mxGeometry>
                </mxCell>
                <mxCell id="92" value="" style="endArrow=none;html=1;entryX=0;entryY=0.5;entryDx=0;entryDy=0;exitX=1;exitY=0.5;exitDx=0;exitDy=0;" edge="1" parent="1" source="82" target="83">
                    <mxGeometry width="50" height="50" relative="1" as="geometry">
                        <mxPoint x="450.00000000001364" y="945" as="sourcePoint"/>
                        <mxPoint x="509.9999999999868" y="945" as="targetPoint"/>
                    </mxGeometry>
                </mxCell>
                <mxCell id="93" value="" style="endArrow=none;html=1;entryX=0;entryY=1;entryDx=0;entryDy=0;exitX=1;exitY=0;exitDx=0;exitDy=0;" edge="1" parent="1" source="86" target="84">
                    <mxGeometry width="50" height="50" relative="1" as="geometry">
                        <mxPoint x="460.00000000001364" y="955" as="sourcePoint"/>
                        <mxPoint x="519.9999999999868" y="955" as="targetPoint"/>
                    </mxGeometry>
                </mxCell>
                <mxCell id="94" value="" style="endArrow=none;html=1;entryX=0.5;entryY=0;entryDx=0;entryDy=0;exitX=0.5;exitY=1;exitDx=0;exitDy=0;" edge="1" parent="1" source="82" target="85">
                    <mxGeometry width="50" height="50" relative="1" as="geometry">
                        <mxPoint x="470.00000000001364" y="965" as="sourcePoint"/>
                        <mxPoint x="529.9999999999868" y="965" as="targetPoint"/>
                    </mxGeometry>
                </mxCell>
                <mxCell id="95" value="" style="endArrow=none;html=1;entryX=0;entryY=0;entryDx=0;entryDy=0;exitX=1;exitY=1;exitDx=0;exitDy=0;" edge="1" parent="1" source="82" target="86">
                    <mxGeometry width="50" height="50" relative="1" as="geometry">
                        <mxPoint x="480.00000000001364" y="975" as="sourcePoint"/>
                        <mxPoint x="539.9999999999868" y="975" as="targetPoint"/>
                    </mxGeometry>
                </mxCell>
                <mxCell id="96" value="" style="endArrow=none;html=1;entryX=0.5;entryY=0;entryDx=0;entryDy=0;exitX=0.5;exitY=1;exitDx=0;exitDy=0;" edge="1" parent="1" source="87" target="90">
                    <mxGeometry width="50" height="50" relative="1" as="geometry">
                        <mxPoint x="490.00000000001364" y="985" as="sourcePoint"/>
                        <mxPoint x="549.9999999999868" y="985" as="targetPoint"/>
                    </mxGeometry>
                </mxCell>
                <mxCell id="97" value="" style="endArrow=none;html=1;entryX=0.5;entryY=0;entryDx=0;entryDy=0;exitX=0.5;exitY=1;exitDx=0;exitDy=0;" edge="1" parent="1" source="85" target="88">
                    <mxGeometry width="50" height="50" relative="1" as="geometry">
                        <mxPoint x="500.00000000001364" y="995" as="sourcePoint"/>
                        <mxPoint x="559.9999999999868" y="995" as="targetPoint"/>
                    </mxGeometry>
                </mxCell>
                <mxCell id="98" value="" style="endArrow=none;html=1;entryX=0;entryY=0.5;entryDx=0;entryDy=0;exitX=1;exitY=0.5;exitDx=0;exitDy=0;" edge="1" parent="1" source="88" target="89">
                    <mxGeometry width="50" height="50" relative="1" as="geometry">
                        <mxPoint x="510.00000000001364" y="1005" as="sourcePoint"/>
                        <mxPoint x="569.9999999999868" y="1005" as="targetPoint"/>
                    </mxGeometry>
                </mxCell>
                <mxCell id="99" value="" style="endArrow=none;html=1;exitX=0.5;exitY=1;exitDx=0;exitDy=0;entryX=0.5;entryY=0;entryDx=0;entryDy=0;" edge="1" parent="1" source="86" target="89">
                    <mxGeometry width="50" height="50" relative="1" as="geometry">
                        <mxPoint x="520.0000000000136" y="1015" as="sourcePoint"/>
                        <mxPoint x="570" y="1030" as="targetPoint"/>
                    </mxGeometry>
                </mxCell>
                <mxCell id="100" value="" style="endArrow=none;html=1;entryX=0;entryY=0;entryDx=0;entryDy=0;exitX=1;exitY=1;exitDx=0;exitDy=0;" edge="1" parent="1" source="86" target="90">
                    <mxGeometry width="50" height="50" relative="1" as="geometry">
                        <mxPoint x="530.0000000000136" y="1025" as="sourcePoint"/>
                        <mxPoint x="589.9999999999868" y="1025" as="targetPoint"/>
                    </mxGeometry>
                </mxCell>
                <mxCell id="101" value="" style="endArrow=none;html=1;entryX=0;entryY=0;entryDx=0;entryDy=0;exitX=1;exitY=1;exitDx=0;exitDy=0;" edge="1" parent="1" source="85" target="89">
                    <mxGeometry width="50" height="50" relative="1" as="geometry">
                        <mxPoint x="445.6066017178173" y="1045.6066017178173" as="sourcePoint"/>
                        <mxPoint x="514.3933982821829" y="1114.393398282183" as="targetPoint"/>
                    </mxGeometry>
                </mxCell>
                <mxCell id="102" value="A" style="ellipse;whiteSpace=wrap;html=1;aspect=fixed;fillColor=#1ba1e2;fontColor=#ffffff;strokeColor=#006EAF;" vertex="1" parent="1">
                    <mxGeometry x="320" y="1400" width="30" height="30" as="geometry"/>
                </mxCell>
                <mxCell id="103" value="B" style="ellipse;whiteSpace=wrap;html=1;aspect=fixed;fillColor=#1ba1e2;strokeColor=#006EAF;fontColor=#ffffff;fillStyle=auto;" vertex="1" parent="1">
                    <mxGeometry x="410" y="1400" width="30" height="30" as="geometry"/>
                </mxCell>
                <mxCell id="104" value="C" style="ellipse;whiteSpace=wrap;html=1;aspect=fixed;fillColor=#1ba1e2;fontColor=#ffffff;strokeColor=#006EAF;" vertex="1" parent="1">
                    <mxGeometry x="500" y="1400" width="30" height="30" as="geometry"/>
                </mxCell>
                <mxCell id="105" value="D" style="ellipse;whiteSpace=wrap;html=1;aspect=fixed;fillColor=#dae8fc;strokeColor=#6c8ebf;" vertex="1" parent="1">
                    <mxGeometry x="320" y="1490" width="30" height="30" as="geometry"/>
                </mxCell>
                <mxCell id="106" value="E" style="ellipse;whiteSpace=wrap;html=1;aspect=fixed;fillColor=#1ba1e2;strokeColor=#006EAF;fontColor=#ffffff;fillStyle=auto;" vertex="1" parent="1">
                    <mxGeometry x="410" y="1490" width="30" height="30" as="geometry"/>
                </mxCell>
                <mxCell id="107" value="F" style="ellipse;whiteSpace=wrap;html=1;aspect=fixed;fillColor=#dae8fc;strokeColor=#6c8ebf;" vertex="1" parent="1">
                    <mxGeometry x="500" y="1490" width="30" height="30" as="geometry"/>
                </mxCell>
                <mxCell id="108" value="G&lt;span style=&quot;color: rgba(0, 0, 0, 0); font-family: monospace; font-size: 0px; text-align: start;&quot;&gt;%3CmxGraphModel%3E%3Croot%3E%3CmxCell%20id%3D%220%22%2F%3E%3CmxCell%20id%3D%221%22%20parent%3D%220%22%2F%3E%3CmxCell%20id%3D%222%22%20value%3D%22A%22%20style%3D%22ellipse%3BwhiteSpace%3Dwrap%3Bhtml%3D1%3Baspect%3Dfixed%3B%22%20vertex%3D%221%22%20parent%3D%221%22%3E%3CmxGeometry%20x%3D%22230%22%20y%3D%22190%22%20width%3D%2230%22%20height%3D%2230%22%20as%3D%22geometry%22%2F%3E%3C%2FmxCell%3E%3C%2Froot%3E%3C%2FmxGraphModel%3E&lt;/span&gt;" style="ellipse;whiteSpace=wrap;html=1;aspect=fixed;" vertex="1" parent="1">
                    <mxGeometry x="320" y="1580" width="30" height="30" as="geometry"/>
                </mxCell>
                <mxCell id="109" value="H" style="ellipse;whiteSpace=wrap;html=1;aspect=fixed;fillColor=#dae8fc;strokeColor=#6c8ebf;" vertex="1" parent="1">
                    <mxGeometry x="410" y="1580" width="30" height="30" as="geometry"/>
                </mxCell>
                <mxCell id="110" value="I" style="ellipse;whiteSpace=wrap;html=1;aspect=fixed;fillColor=#1ba1e2;strokeColor=#006EAF;fontColor=#ffffff;" vertex="1" parent="1">
                    <mxGeometry x="500" y="1580" width="30" height="30" as="geometry"/>
                </mxCell>
                <mxCell id="111" value="" style="endArrow=none;html=1;entryX=0;entryY=0.5;entryDx=0;entryDy=0;exitX=1;exitY=0.5;exitDx=0;exitDy=0;" edge="1" parent="1" source="103" target="104">
                    <mxGeometry width="50" height="50" relative="1" as="geometry">
                        <mxPoint x="520" y="1630" as="sourcePoint"/>
                        <mxPoint x="610" y="1510" as="targetPoint"/>
                    </mxGeometry>
                </mxCell>
                <mxCell id="112" value="" style="endArrow=none;html=1;entryX=0;entryY=0.5;entryDx=0;entryDy=0;exitX=1;exitY=0.5;exitDx=0;exitDy=0;" edge="1" parent="1" source="102" target="103">
                    <mxGeometry width="50" height="50" relative="1" as="geometry">
                        <mxPoint x="450.00000000001364" y="1425" as="sourcePoint"/>
                        <mxPoint x="509.9999999999868" y="1425" as="targetPoint"/>
                    </mxGeometry>
                </mxCell>
                <mxCell id="113" value="" style="endArrow=none;html=1;entryX=0;entryY=1;entryDx=0;entryDy=0;exitX=1;exitY=0;exitDx=0;exitDy=0;" edge="1" parent="1" source="106" target="104">
                    <mxGeometry width="50" height="50" relative="1" as="geometry">
                        <mxPoint x="460.00000000001364" y="1435" as="sourcePoint"/>
                        <mxPoint x="519.9999999999868" y="1435" as="targetPoint"/>
                    </mxGeometry>
                </mxCell>
                <mxCell id="114" value="" style="endArrow=none;html=1;entryX=0.5;entryY=0;entryDx=0;entryDy=0;exitX=0.5;exitY=1;exitDx=0;exitDy=0;" edge="1" parent="1" source="102" target="105">
                    <mxGeometry width="50" height="50" relative="1" as="geometry">
                        <mxPoint x="470.00000000001364" y="1445" as="sourcePoint"/>
                        <mxPoint x="529.9999999999868" y="1445" as="targetPoint"/>
                    </mxGeometry>
                </mxCell>
                <mxCell id="115" value="" style="endArrow=none;html=1;entryX=0;entryY=0;entryDx=0;entryDy=0;exitX=1;exitY=1;exitDx=0;exitDy=0;" edge="1" parent="1" source="102" target="106">
                    <mxGeometry width="50" height="50" relative="1" as="geometry">
                        <mxPoint x="480.00000000001364" y="1455" as="sourcePoint"/>
                        <mxPoint x="539.9999999999868" y="1455" as="targetPoint"/>
                    </mxGeometry>
                </mxCell>
                <mxCell id="116" value="" style="endArrow=none;html=1;entryX=0.5;entryY=0;entryDx=0;entryDy=0;exitX=0.5;exitY=1;exitDx=0;exitDy=0;" edge="1" parent="1" source="107" target="110">
                    <mxGeometry width="50" height="50" relative="1" as="geometry">
                        <mxPoint x="490.00000000001364" y="1465" as="sourcePoint"/>
                        <mxPoint x="549.9999999999868" y="1465" as="targetPoint"/>
                    </mxGeometry>
                </mxCell>
                <mxCell id="117" value="" style="endArrow=none;html=1;entryX=0.5;entryY=0;entryDx=0;entryDy=0;exitX=0.5;exitY=1;exitDx=0;exitDy=0;" edge="1" parent="1" source="105" target="108">
                    <mxGeometry width="50" height="50" relative="1" as="geometry">
                        <mxPoint x="500.00000000001364" y="1475" as="sourcePoint"/>
                        <mxPoint x="559.9999999999868" y="1475" as="targetPoint"/>
                    </mxGeometry>
                </mxCell>
                <mxCell id="118" value="" style="endArrow=none;html=1;entryX=0;entryY=0.5;entryDx=0;entryDy=0;exitX=1;exitY=0.5;exitDx=0;exitDy=0;" edge="1" parent="1" source="108" target="109">
                    <mxGeometry width="50" height="50" relative="1" as="geometry">
                        <mxPoint x="510.00000000001364" y="1485" as="sourcePoint"/>
                        <mxPoint x="569.9999999999868" y="1485" as="targetPoint"/>
                    </mxGeometry>
                </mxCell>
                <mxCell id="119" value="" style="endArrow=none;html=1;exitX=0.5;exitY=1;exitDx=0;exitDy=0;entryX=0.5;entryY=0;entryDx=0;entryDy=0;" edge="1" parent="1" source="106" target="109">
                    <mxGeometry width="50" height="50" relative="1" as="geometry">
                        <mxPoint x="520.0000000000136" y="1495" as="sourcePoint"/>
                        <mxPoint x="570" y="1510" as="targetPoint"/>
                    </mxGeometry>
                </mxCell>
                <mxCell id="120" value="" style="endArrow=none;html=1;entryX=0;entryY=0;entryDx=0;entryDy=0;exitX=1;exitY=1;exitDx=0;exitDy=0;" edge="1" parent="1" source="106" target="110">
                    <mxGeometry width="50" height="50" relative="1" as="geometry">
                        <mxPoint x="530.0000000000136" y="1505" as="sourcePoint"/>
                        <mxPoint x="589.9999999999868" y="1505" as="targetPoint"/>
                    </mxGeometry>
                </mxCell>
                <mxCell id="121" value="" style="endArrow=none;html=1;entryX=0;entryY=0;entryDx=0;entryDy=0;exitX=1;exitY=1;exitDx=0;exitDy=0;" edge="1" parent="1" source="105" target="109">
                    <mxGeometry width="50" height="50" relative="1" as="geometry">
                        <mxPoint x="445.6066017178173" y="1525.6066017178173" as="sourcePoint"/>
                        <mxPoint x="514.3933982821829" y="1594.393398282183" as="targetPoint"/>
                    </mxGeometry>
                </mxCell>
                <mxCell id="122" value="A" style="ellipse;whiteSpace=wrap;html=1;aspect=fixed;fillColor=#1ba1e2;fontColor=#ffffff;strokeColor=#006EAF;" vertex="1" parent="1">
                    <mxGeometry x="320" y="1640" width="30" height="30" as="geometry"/>
                </mxCell>
                <mxCell id="123" value="B" style="ellipse;whiteSpace=wrap;html=1;aspect=fixed;fillColor=#1ba1e2;strokeColor=#006EAF;fontColor=#ffffff;fillStyle=auto;" vertex="1" parent="1">
                    <mxGeometry x="410" y="1640" width="30" height="30" as="geometry"/>
                </mxCell>
                <mxCell id="124" value="C" style="ellipse;whiteSpace=wrap;html=1;aspect=fixed;fillColor=#1ba1e2;fontColor=#ffffff;strokeColor=#006EAF;" vertex="1" parent="1">
                    <mxGeometry x="500" y="1640" width="30" height="30" as="geometry"/>
                </mxCell>
                <mxCell id="125" value="D" style="ellipse;whiteSpace=wrap;html=1;aspect=fixed;fillColor=#dae8fc;strokeColor=#6c8ebf;" vertex="1" parent="1">
                    <mxGeometry x="320" y="1730" width="30" height="30" as="geometry"/>
                </mxCell>
                <mxCell id="126" value="E" style="ellipse;whiteSpace=wrap;html=1;aspect=fixed;fillColor=#1ba1e2;strokeColor=#006EAF;fontColor=#ffffff;fillStyle=auto;" vertex="1" parent="1">
                    <mxGeometry x="410" y="1730" width="30" height="30" as="geometry"/>
                </mxCell>
                <mxCell id="127" value="F" style="ellipse;whiteSpace=wrap;html=1;aspect=fixed;fillColor=#1ba1e2;strokeColor=#006EAF;fontColor=#ffffff;" vertex="1" parent="1">
                    <mxGeometry x="500" y="1730" width="30" height="30" as="geometry"/>
                </mxCell>
                <mxCell id="128" value="G&lt;span style=&quot;color: rgba(0, 0, 0, 0); font-family: monospace; font-size: 0px; text-align: start;&quot;&gt;%3CmxGraphModel%3E%3Croot%3E%3CmxCell%20id%3D%220%22%2F%3E%3CmxCell%20id%3D%221%22%20parent%3D%220%22%2F%3E%3CmxCell%20id%3D%222%22%20value%3D%22A%22%20style%3D%22ellipse%3BwhiteSpace%3Dwrap%3Bhtml%3D1%3Baspect%3Dfixed%3B%22%20vertex%3D%221%22%20parent%3D%221%22%3E%3CmxGeometry%20x%3D%22230%22%20y%3D%22190%22%20width%3D%2230%22%20height%3D%2230%22%20as%3D%22geometry%22%2F%3E%3C%2FmxCell%3E%3C%2Froot%3E%3C%2FmxGraphModel%3E&lt;/span&gt;" style="ellipse;whiteSpace=wrap;html=1;aspect=fixed;" vertex="1" parent="1">
                    <mxGeometry x="320" y="1820" width="30" height="30" as="geometry"/>
                </mxCell>
                <mxCell id="129" value="H" style="ellipse;whiteSpace=wrap;html=1;aspect=fixed;fillColor=#dae8fc;strokeColor=#6c8ebf;" vertex="1" parent="1">
                    <mxGeometry x="410" y="1820" width="30" height="30" as="geometry"/>
                </mxCell>
                <mxCell id="130" value="I" style="ellipse;whiteSpace=wrap;html=1;aspect=fixed;fillColor=#1ba1e2;strokeColor=#006EAF;fontColor=#ffffff;" vertex="1" parent="1">
                    <mxGeometry x="500" y="1820" width="30" height="30" as="geometry"/>
                </mxCell>
                <mxCell id="131" value="" style="endArrow=none;html=1;entryX=0;entryY=0.5;entryDx=0;entryDy=0;exitX=1;exitY=0.5;exitDx=0;exitDy=0;" edge="1" parent="1" source="123" target="124">
                    <mxGeometry width="50" height="50" relative="1" as="geometry">
                        <mxPoint x="520" y="1870" as="sourcePoint"/>
                        <mxPoint x="610" y="1750" as="targetPoint"/>
                    </mxGeometry>
                </mxCell>
                <mxCell id="132" value="" style="endArrow=none;html=1;entryX=0;entryY=0.5;entryDx=0;entryDy=0;exitX=1;exitY=0.5;exitDx=0;exitDy=0;" edge="1" parent="1" source="122" target="123">
                    <mxGeometry width="50" height="50" relative="1" as="geometry">
                        <mxPoint x="450.00000000001364" y="1665" as="sourcePoint"/>
                        <mxPoint x="509.9999999999868" y="1665" as="targetPoint"/>
                    </mxGeometry>
                </mxCell>
                <mxCell id="133" value="" style="endArrow=none;html=1;entryX=0;entryY=1;entryDx=0;entryDy=0;exitX=1;exitY=0;exitDx=0;exitDy=0;" edge="1" parent="1" source="126" target="124">
                    <mxGeometry width="50" height="50" relative="1" as="geometry">
                        <mxPoint x="460.00000000001364" y="1675" as="sourcePoint"/>
                        <mxPoint x="519.9999999999868" y="1675" as="targetPoint"/>
                    </mxGeometry>
                </mxCell>
                <mxCell id="134" value="" style="endArrow=none;html=1;entryX=0.5;entryY=0;entryDx=0;entryDy=0;exitX=0.5;exitY=1;exitDx=0;exitDy=0;" edge="1" parent="1" source="122" target="125">
                    <mxGeometry width="50" height="50" relative="1" as="geometry">
                        <mxPoint x="470.00000000001364" y="1685" as="sourcePoint"/>
                        <mxPoint x="529.9999999999868" y="1685" as="targetPoint"/>
                    </mxGeometry>
                </mxCell>
                <mxCell id="135" value="" style="endArrow=none;html=1;entryX=0;entryY=0;entryDx=0;entryDy=0;exitX=1;exitY=1;exitDx=0;exitDy=0;" edge="1" parent="1" source="122" target="126">
                    <mxGeometry width="50" height="50" relative="1" as="geometry">
                        <mxPoint x="480.00000000001364" y="1695" as="sourcePoint"/>
                        <mxPoint x="539.9999999999868" y="1695" as="targetPoint"/>
                    </mxGeometry>
                </mxCell>
                <mxCell id="136" value="" style="endArrow=none;html=1;entryX=0.5;entryY=0;entryDx=0;entryDy=0;exitX=0.5;exitY=1;exitDx=0;exitDy=0;" edge="1" parent="1" source="127" target="130">
                    <mxGeometry width="50" height="50" relative="1" as="geometry">
                        <mxPoint x="490.00000000001364" y="1705" as="sourcePoint"/>
                        <mxPoint x="549.9999999999868" y="1705" as="targetPoint"/>
                    </mxGeometry>
                </mxCell>
                <mxCell id="137" value="" style="endArrow=none;html=1;entryX=0.5;entryY=0;entryDx=0;entryDy=0;exitX=0.5;exitY=1;exitDx=0;exitDy=0;" edge="1" parent="1" source="125" target="128">
                    <mxGeometry width="50" height="50" relative="1" as="geometry">
                        <mxPoint x="500.00000000001364" y="1715" as="sourcePoint"/>
                        <mxPoint x="559.9999999999868" y="1715" as="targetPoint"/>
                    </mxGeometry>
                </mxCell>
                <mxCell id="138" value="" style="endArrow=none;html=1;entryX=0;entryY=0.5;entryDx=0;entryDy=0;exitX=1;exitY=0.5;exitDx=0;exitDy=0;" edge="1" parent="1" source="128" target="129">
                    <mxGeometry width="50" height="50" relative="1" as="geometry">
                        <mxPoint x="510.00000000001364" y="1725" as="sourcePoint"/>
                        <mxPoint x="569.9999999999868" y="1725" as="targetPoint"/>
                    </mxGeometry>
                </mxCell>
                <mxCell id="139" value="" style="endArrow=none;html=1;exitX=0.5;exitY=1;exitDx=0;exitDy=0;entryX=0.5;entryY=0;entryDx=0;entryDy=0;" edge="1" parent="1" source="126" target="129">
                    <mxGeometry width="50" height="50" relative="1" as="geometry">
                        <mxPoint x="520.0000000000136" y="1735" as="sourcePoint"/>
                        <mxPoint x="570" y="1750" as="targetPoint"/>
                    </mxGeometry>
                </mxCell>
                <mxCell id="140" value="" style="endArrow=none;html=1;entryX=0;entryY=0;entryDx=0;entryDy=0;exitX=1;exitY=1;exitDx=0;exitDy=0;" edge="1" parent="1" source="126" target="130">
                    <mxGeometry width="50" height="50" relative="1" as="geometry">
                        <mxPoint x="530.0000000000136" y="1745" as="sourcePoint"/>
                        <mxPoint x="589.9999999999868" y="1745" as="targetPoint"/>
                    </mxGeometry>
                </mxCell>
                <mxCell id="141" value="" style="endArrow=none;html=1;entryX=0;entryY=0;entryDx=0;entryDy=0;exitX=1;exitY=1;exitDx=0;exitDy=0;" edge="1" parent="1" source="125" target="129">
                    <mxGeometry width="50" height="50" relative="1" as="geometry">
                        <mxPoint x="445.6066017178173" y="1765.6066017178173" as="sourcePoint"/>
                        <mxPoint x="514.3933982821829" y="1834.393398282183" as="targetPoint"/>
                    </mxGeometry>
                </mxCell>
                <mxCell id="142" value="A" style="ellipse;whiteSpace=wrap;html=1;aspect=fixed;fillColor=#1ba1e2;fontColor=#ffffff;strokeColor=#006EAF;" vertex="1" parent="1">
                    <mxGeometry x="320" y="1880" width="30" height="30" as="geometry"/>
                </mxCell>
                <mxCell id="143" value="B" style="ellipse;whiteSpace=wrap;html=1;aspect=fixed;fillColor=#1ba1e2;strokeColor=#006EAF;fontColor=#ffffff;fillStyle=auto;" vertex="1" parent="1">
                    <mxGeometry x="410" y="1880" width="30" height="30" as="geometry"/>
                </mxCell>
                <mxCell id="144" value="C" style="ellipse;whiteSpace=wrap;html=1;aspect=fixed;fillColor=#1ba1e2;fontColor=#ffffff;strokeColor=#006EAF;" vertex="1" parent="1">
                    <mxGeometry x="500" y="1880" width="30" height="30" as="geometry"/>
                </mxCell>
                <mxCell id="145" value="D" style="ellipse;whiteSpace=wrap;html=1;aspect=fixed;fillColor=#dae8fc;strokeColor=#6c8ebf;" vertex="1" parent="1">
                    <mxGeometry x="320" y="1970" width="30" height="30" as="geometry"/>
                </mxCell>
                <mxCell id="146" value="E" style="ellipse;whiteSpace=wrap;html=1;aspect=fixed;fillColor=#1ba1e2;strokeColor=#006EAF;fontColor=#ffffff;fillStyle=auto;" vertex="1" parent="1">
                    <mxGeometry x="410" y="1970" width="30" height="30" as="geometry"/>
                </mxCell>
                <mxCell id="147" value="F" style="ellipse;whiteSpace=wrap;html=1;aspect=fixed;fillColor=#1ba1e2;strokeColor=#006EAF;fontColor=#ffffff;" vertex="1" parent="1">
                    <mxGeometry x="500" y="1970" width="30" height="30" as="geometry"/>
                </mxCell>
                <mxCell id="148" value="G&lt;span style=&quot;color: rgba(0, 0, 0, 0); font-family: monospace; font-size: 0px; text-align: start;&quot;&gt;%3CmxGraphModel%3E%3Croot%3E%3CmxCell%20id%3D%220%22%2F%3E%3CmxCell%20id%3D%221%22%20parent%3D%220%22%2F%3E%3CmxCell%20id%3D%222%22%20value%3D%22A%22%20style%3D%22ellipse%3BwhiteSpace%3Dwrap%3Bhtml%3D1%3Baspect%3Dfixed%3B%22%20vertex%3D%221%22%20parent%3D%221%22%3E%3CmxGeometry%20x%3D%22230%22%20y%3D%22190%22%20width%3D%2230%22%20height%3D%2230%22%20as%3D%22geometry%22%2F%3E%3C%2FmxCell%3E%3C%2Froot%3E%3C%2FmxGraphModel%3E&lt;/span&gt;" style="ellipse;whiteSpace=wrap;html=1;aspect=fixed;fillColor=#dae8fc;strokeColor=#6c8ebf;" vertex="1" parent="1">
                    <mxGeometry x="320" y="2060" width="30" height="30" as="geometry"/>
                </mxCell>
                <mxCell id="149" value="H" style="ellipse;whiteSpace=wrap;html=1;aspect=fixed;fillColor=#1ba1e2;strokeColor=#006EAF;fontColor=#ffffff;" vertex="1" parent="1">
                    <mxGeometry x="410" y="2060" width="30" height="30" as="geometry"/>
                </mxCell>
                <mxCell id="150" value="I" style="ellipse;whiteSpace=wrap;html=1;aspect=fixed;fillColor=#1ba1e2;strokeColor=#006EAF;fontColor=#ffffff;" vertex="1" parent="1">
                    <mxGeometry x="500" y="2060" width="30" height="30" as="geometry"/>
                </mxCell>
                <mxCell id="151" value="" style="endArrow=none;html=1;entryX=0;entryY=0.5;entryDx=0;entryDy=0;exitX=1;exitY=0.5;exitDx=0;exitDy=0;" edge="1" parent="1" source="143" target="144">
                    <mxGeometry width="50" height="50" relative="1" as="geometry">
                        <mxPoint x="520" y="2110" as="sourcePoint"/>
                        <mxPoint x="610" y="1990" as="targetPoint"/>
                    </mxGeometry>
                </mxCell>
                <mxCell id="152" value="" style="endArrow=none;html=1;entryX=0;entryY=0.5;entryDx=0;entryDy=0;exitX=1;exitY=0.5;exitDx=0;exitDy=0;" edge="1" parent="1" source="142" target="143">
                    <mxGeometry width="50" height="50" relative="1" as="geometry">
                        <mxPoint x="450.00000000001364" y="1905" as="sourcePoint"/>
                        <mxPoint x="509.9999999999868" y="1905" as="targetPoint"/>
                    </mxGeometry>
                </mxCell>
                <mxCell id="153" value="" style="endArrow=none;html=1;entryX=0;entryY=1;entryDx=0;entryDy=0;exitX=1;exitY=0;exitDx=0;exitDy=0;" edge="1" parent="1" source="146" target="144">
                    <mxGeometry width="50" height="50" relative="1" as="geometry">
                        <mxPoint x="460.00000000001364" y="1915" as="sourcePoint"/>
                        <mxPoint x="519.9999999999868" y="1915" as="targetPoint"/>
                    </mxGeometry>
                </mxCell>
                <mxCell id="154" value="" style="endArrow=none;html=1;entryX=0.5;entryY=0;entryDx=0;entryDy=0;exitX=0.5;exitY=1;exitDx=0;exitDy=0;" edge="1" parent="1" source="142" target="145">
                    <mxGeometry width="50" height="50" relative="1" as="geometry">
                        <mxPoint x="470.00000000001364" y="1925" as="sourcePoint"/>
                        <mxPoint x="529.9999999999868" y="1925" as="targetPoint"/>
                    </mxGeometry>
                </mxCell>
                <mxCell id="155" value="" style="endArrow=none;html=1;entryX=0;entryY=0;entryDx=0;entryDy=0;exitX=1;exitY=1;exitDx=0;exitDy=0;" edge="1" parent="1" source="142" target="146">
                    <mxGeometry width="50" height="50" relative="1" as="geometry">
                        <mxPoint x="480.00000000001364" y="1935" as="sourcePoint"/>
                        <mxPoint x="539.9999999999868" y="1935" as="targetPoint"/>
                    </mxGeometry>
                </mxCell>
                <mxCell id="156" value="" style="endArrow=none;html=1;entryX=0.5;entryY=0;entryDx=0;entryDy=0;exitX=0.5;exitY=1;exitDx=0;exitDy=0;" edge="1" parent="1" source="147" target="150">
                    <mxGeometry width="50" height="50" relative="1" as="geometry">
                        <mxPoint x="490.00000000001364" y="1945" as="sourcePoint"/>
                        <mxPoint x="549.9999999999868" y="1945" as="targetPoint"/>
                    </mxGeometry>
                </mxCell>
                <mxCell id="157" value="" style="endArrow=none;html=1;entryX=0.5;entryY=0;entryDx=0;entryDy=0;exitX=0.5;exitY=1;exitDx=0;exitDy=0;" edge="1" parent="1" source="145" target="148">
                    <mxGeometry width="50" height="50" relative="1" as="geometry">
                        <mxPoint x="500.00000000001364" y="1955" as="sourcePoint"/>
                        <mxPoint x="559.9999999999868" y="1955" as="targetPoint"/>
                    </mxGeometry>
                </mxCell>
                <mxCell id="158" value="" style="endArrow=none;html=1;entryX=0;entryY=0.5;entryDx=0;entryDy=0;exitX=1;exitY=0.5;exitDx=0;exitDy=0;" edge="1" parent="1" source="148" target="149">
                    <mxGeometry width="50" height="50" relative="1" as="geometry">
                        <mxPoint x="510.00000000001364" y="1965" as="sourcePoint"/>
                        <mxPoint x="569.9999999999868" y="1965" as="targetPoint"/>
                    </mxGeometry>
                </mxCell>
                <mxCell id="159" value="" style="endArrow=none;html=1;exitX=0.5;exitY=1;exitDx=0;exitDy=0;entryX=0.5;entryY=0;entryDx=0;entryDy=0;" edge="1" parent="1" source="146" target="149">
                    <mxGeometry width="50" height="50" relative="1" as="geometry">
                        <mxPoint x="520.0000000000136" y="1975" as="sourcePoint"/>
                        <mxPoint x="570" y="1990" as="targetPoint"/>
                    </mxGeometry>
                </mxCell>
                <mxCell id="160" value="" style="endArrow=none;html=1;entryX=0;entryY=0;entryDx=0;entryDy=0;exitX=1;exitY=1;exitDx=0;exitDy=0;" edge="1" parent="1" source="146" target="150">
                    <mxGeometry width="50" height="50" relative="1" as="geometry">
                        <mxPoint x="530.0000000000136" y="1985" as="sourcePoint"/>
                        <mxPoint x="589.9999999999868" y="1985" as="targetPoint"/>
                    </mxGeometry>
                </mxCell>
                <mxCell id="161" value="" style="endArrow=none;html=1;entryX=0;entryY=0;entryDx=0;entryDy=0;exitX=1;exitY=1;exitDx=0;exitDy=0;" edge="1" parent="1" source="145" target="149">
                    <mxGeometry width="50" height="50" relative="1" as="geometry">
                        <mxPoint x="445.6066017178173" y="2005.6066017178173" as="sourcePoint"/>
                        <mxPoint x="514.3933982821829" y="2074.3933982821827" as="targetPoint"/>
                    </mxGeometry>
                </mxCell>
                <mxCell id="162" value="A" style="ellipse;whiteSpace=wrap;html=1;aspect=fixed;fillColor=#1ba1e2;fontColor=#ffffff;strokeColor=#006EAF;" vertex="1" parent="1">
                    <mxGeometry x="320" y="2120" width="30" height="30" as="geometry"/>
                </mxCell>
                <mxCell id="163" value="B" style="ellipse;whiteSpace=wrap;html=1;aspect=fixed;fillColor=#1ba1e2;strokeColor=#006EAF;fontColor=#ffffff;fillStyle=auto;" vertex="1" parent="1">
                    <mxGeometry x="410" y="2120" width="30" height="30" as="geometry"/>
                </mxCell>
                <mxCell id="164" value="C" style="ellipse;whiteSpace=wrap;html=1;aspect=fixed;fillColor=#1ba1e2;fontColor=#ffffff;strokeColor=#006EAF;" vertex="1" parent="1">
                    <mxGeometry x="500" y="2120" width="30" height="30" as="geometry"/>
                </mxCell>
                <mxCell id="165" value="D" style="ellipse;whiteSpace=wrap;html=1;aspect=fixed;fillColor=#1ba1e2;strokeColor=#006EAF;fontColor=#ffffff;" vertex="1" parent="1">
                    <mxGeometry x="320" y="2210" width="30" height="30" as="geometry"/>
                </mxCell>
                <mxCell id="166" value="E" style="ellipse;whiteSpace=wrap;html=1;aspect=fixed;fillColor=#1ba1e2;strokeColor=#006EAF;fontColor=#ffffff;fillStyle=auto;" vertex="1" parent="1">
                    <mxGeometry x="410" y="2210" width="30" height="30" as="geometry"/>
                </mxCell>
                <mxCell id="167" value="F" style="ellipse;whiteSpace=wrap;html=1;aspect=fixed;fillColor=#1ba1e2;strokeColor=#006EAF;fontColor=#ffffff;" vertex="1" parent="1">
                    <mxGeometry x="500" y="2210" width="30" height="30" as="geometry"/>
                </mxCell>
                <mxCell id="168" value="G&lt;span style=&quot;color: rgba(0, 0, 0, 0); font-family: monospace; font-size: 0px; text-align: start;&quot;&gt;%3CmxGraphModel%3E%3Croot%3E%3CmxCell%20id%3D%220%22%2F%3E%3CmxCell%20id%3D%221%22%20parent%3D%220%22%2F%3E%3CmxCell%20id%3D%222%22%20value%3D%22A%22%20style%3D%22ellipse%3BwhiteSpace%3Dwrap%3Bhtml%3D1%3Baspect%3Dfixed%3B%22%20vertex%3D%221%22%20parent%3D%221%22%3E%3CmxGeometry%20x%3D%22230%22%20y%3D%22190%22%20width%3D%2230%22%20height%3D%2230%22%20as%3D%22geometry%22%2F%3E%3C%2FmxCell%3E%3C%2Froot%3E%3C%2FmxGraphModel%3E&lt;/span&gt;" style="ellipse;whiteSpace=wrap;html=1;aspect=fixed;fillColor=#dae8fc;strokeColor=#6c8ebf;" vertex="1" parent="1">
                    <mxGeometry x="320" y="2300" width="30" height="30" as="geometry"/>
                </mxCell>
                <mxCell id="169" value="H" style="ellipse;whiteSpace=wrap;html=1;aspect=fixed;fillColor=#1ba1e2;strokeColor=#006EAF;fontColor=#ffffff;" vertex="1" parent="1">
                    <mxGeometry x="410" y="2300" width="30" height="30" as="geometry"/>
                </mxCell>
                <mxCell id="170" value="I" style="ellipse;whiteSpace=wrap;html=1;aspect=fixed;fillColor=#1ba1e2;strokeColor=#006EAF;fontColor=#ffffff;" vertex="1" parent="1">
                    <mxGeometry x="500" y="2300" width="30" height="30" as="geometry"/>
                </mxCell>
                <mxCell id="171" value="" style="endArrow=none;html=1;entryX=0;entryY=0.5;entryDx=0;entryDy=0;exitX=1;exitY=0.5;exitDx=0;exitDy=0;" edge="1" parent="1" source="163" target="164">
                    <mxGeometry width="50" height="50" relative="1" as="geometry">
                        <mxPoint x="520" y="2350" as="sourcePoint"/>
                        <mxPoint x="610" y="2230" as="targetPoint"/>
                    </mxGeometry>
                </mxCell>
                <mxCell id="172" value="" style="endArrow=none;html=1;entryX=0;entryY=0.5;entryDx=0;entryDy=0;exitX=1;exitY=0.5;exitDx=0;exitDy=0;" edge="1" parent="1" source="162" target="163">
                    <mxGeometry width="50" height="50" relative="1" as="geometry">
                        <mxPoint x="450.00000000001364" y="2145" as="sourcePoint"/>
                        <mxPoint x="509.9999999999868" y="2145" as="targetPoint"/>
                    </mxGeometry>
                </mxCell>
                <mxCell id="173" value="" style="endArrow=none;html=1;entryX=0;entryY=1;entryDx=0;entryDy=0;exitX=1;exitY=0;exitDx=0;exitDy=0;" edge="1" parent="1" source="166" target="164">
                    <mxGeometry width="50" height="50" relative="1" as="geometry">
                        <mxPoint x="460.00000000001364" y="2155" as="sourcePoint"/>
                        <mxPoint x="519.9999999999868" y="2155" as="targetPoint"/>
                    </mxGeometry>
                </mxCell>
                <mxCell id="174" value="" style="endArrow=none;html=1;entryX=0.5;entryY=0;entryDx=0;entryDy=0;exitX=0.5;exitY=1;exitDx=0;exitDy=0;" edge="1" parent="1" source="162" target="165">
                    <mxGeometry width="50" height="50" relative="1" as="geometry">
                        <mxPoint x="470.00000000001364" y="2165" as="sourcePoint"/>
                        <mxPoint x="529.9999999999868" y="2165" as="targetPoint"/>
                    </mxGeometry>
                </mxCell>
                <mxCell id="175" value="" style="endArrow=none;html=1;entryX=0;entryY=0;entryDx=0;entryDy=0;exitX=1;exitY=1;exitDx=0;exitDy=0;" edge="1" parent="1" source="162" target="166">
                    <mxGeometry width="50" height="50" relative="1" as="geometry">
                        <mxPoint x="480.00000000001364" y="2175" as="sourcePoint"/>
                        <mxPoint x="539.9999999999868" y="2175" as="targetPoint"/>
                    </mxGeometry>
                </mxCell>
                <mxCell id="176" value="" style="endArrow=none;html=1;entryX=0.5;entryY=0;entryDx=0;entryDy=0;exitX=0.5;exitY=1;exitDx=0;exitDy=0;" edge="1" parent="1" source="167" target="170">
                    <mxGeometry width="50" height="50" relative="1" as="geometry">
                        <mxPoint x="490.00000000001364" y="2185" as="sourcePoint"/>
                        <mxPoint x="549.9999999999868" y="2185" as="targetPoint"/>
                    </mxGeometry>
                </mxCell>
                <mxCell id="177" value="" style="endArrow=none;html=1;entryX=0.5;entryY=0;entryDx=0;entryDy=0;exitX=0.5;exitY=1;exitDx=0;exitDy=0;" edge="1" parent="1" source="165" target="168">
                    <mxGeometry width="50" height="50" relative="1" as="geometry">
                        <mxPoint x="500.00000000001364" y="2195" as="sourcePoint"/>
                        <mxPoint x="559.9999999999868" y="2195" as="targetPoint"/>
                    </mxGeometry>
                </mxCell>
                <mxCell id="178" value="" style="endArrow=none;html=1;entryX=0;entryY=0.5;entryDx=0;entryDy=0;exitX=1;exitY=0.5;exitDx=0;exitDy=0;" edge="1" parent="1" source="168" target="169">
                    <mxGeometry width="50" height="50" relative="1" as="geometry">
                        <mxPoint x="510.00000000001364" y="2205" as="sourcePoint"/>
                        <mxPoint x="569.9999999999868" y="2205" as="targetPoint"/>
                    </mxGeometry>
                </mxCell>
                <mxCell id="179" value="" style="endArrow=none;html=1;exitX=0.5;exitY=1;exitDx=0;exitDy=0;entryX=0.5;entryY=0;entryDx=0;entryDy=0;" edge="1" parent="1" source="166" target="169">
                    <mxGeometry width="50" height="50" relative="1" as="geometry">
                        <mxPoint x="520.0000000000136" y="2215" as="sourcePoint"/>
                        <mxPoint x="570" y="2230" as="targetPoint"/>
                    </mxGeometry>
                </mxCell>
                <mxCell id="180" value="" style="endArrow=none;html=1;entryX=0;entryY=0;entryDx=0;entryDy=0;exitX=1;exitY=1;exitDx=0;exitDy=0;" edge="1" parent="1" source="166" target="170">
                    <mxGeometry width="50" height="50" relative="1" as="geometry">
                        <mxPoint x="530.0000000000136" y="2225" as="sourcePoint"/>
                        <mxPoint x="589.9999999999868" y="2225" as="targetPoint"/>
                    </mxGeometry>
                </mxCell>
                <mxCell id="181" value="" style="endArrow=none;html=1;entryX=0;entryY=0;entryDx=0;entryDy=0;exitX=1;exitY=1;exitDx=0;exitDy=0;" edge="1" parent="1" source="165" target="169">
                    <mxGeometry width="50" height="50" relative="1" as="geometry">
                        <mxPoint x="445.6066017178173" y="2245.6066017178173" as="sourcePoint"/>
                        <mxPoint x="514.3933982821829" y="2314.3933982821827" as="targetPoint"/>
                    </mxGeometry>
                </mxCell>
                <mxCell id="182" value="A" style="ellipse;whiteSpace=wrap;html=1;aspect=fixed;fillColor=#1ba1e2;fontColor=#ffffff;strokeColor=#006EAF;" vertex="1" parent="1">
                    <mxGeometry x="320" y="2360" width="30" height="30" as="geometry"/>
                </mxCell>
                <mxCell id="183" value="B" style="ellipse;whiteSpace=wrap;html=1;aspect=fixed;fillColor=#1ba1e2;strokeColor=#006EAF;fontColor=#ffffff;fillStyle=auto;" vertex="1" parent="1">
                    <mxGeometry x="410" y="2360" width="30" height="30" as="geometry"/>
                </mxCell>
                <mxCell id="184" value="C" style="ellipse;whiteSpace=wrap;html=1;aspect=fixed;fillColor=#1ba1e2;fontColor=#ffffff;strokeColor=#006EAF;" vertex="1" parent="1">
                    <mxGeometry x="500" y="2360" width="30" height="30" as="geometry"/>
                </mxCell>
                <mxCell id="185" value="D" style="ellipse;whiteSpace=wrap;html=1;aspect=fixed;fillColor=#1ba1e2;strokeColor=#006EAF;fontColor=#ffffff;" vertex="1" parent="1">
                    <mxGeometry x="320" y="2450" width="30" height="30" as="geometry"/>
                </mxCell>
                <mxCell id="186" value="E" style="ellipse;whiteSpace=wrap;html=1;aspect=fixed;fillColor=#1ba1e2;strokeColor=#006EAF;fontColor=#ffffff;fillStyle=auto;" vertex="1" parent="1">
                    <mxGeometry x="410" y="2450" width="30" height="30" as="geometry"/>
                </mxCell>
                <mxCell id="187" value="F" style="ellipse;whiteSpace=wrap;html=1;aspect=fixed;fillColor=#1ba1e2;strokeColor=#006EAF;fontColor=#ffffff;" vertex="1" parent="1">
                    <mxGeometry x="500" y="2450" width="30" height="30" as="geometry"/>
                </mxCell>
                <mxCell id="188" value="G&lt;span style=&quot;color: rgba(0, 0, 0, 0); font-family: monospace; font-size: 0px; text-align: start;&quot;&gt;%3CmxGraphModel%3E%3Croot%3E%3CmxCell%20id%3D%220%22%2F%3E%3CmxCell%20id%3D%221%22%20parent%3D%220%22%2F%3E%3CmxCell%20id%3D%222%22%20value%3D%22A%22%20style%3D%22ellipse%3BwhiteSpace%3Dwrap%3Bhtml%3D1%3Baspect%3Dfixed%3B%22%20vertex%3D%221%22%20parent%3D%221%22%3E%3CmxGeometry%20x%3D%22230%22%20y%3D%22190%22%20width%3D%2230%22%20height%3D%2230%22%20as%3D%22geometry%22%2F%3E%3C%2FmxCell%3E%3C%2Froot%3E%3C%2FmxGraphModel%3E&lt;/span&gt;" style="ellipse;whiteSpace=wrap;html=1;aspect=fixed;fillColor=#1ba1e2;strokeColor=#006EAF;fontColor=#ffffff;" vertex="1" parent="1">
                    <mxGeometry x="320" y="2540" width="30" height="30" as="geometry"/>
                </mxCell>
                <mxCell id="189" value="H" style="ellipse;whiteSpace=wrap;html=1;aspect=fixed;fillColor=#1ba1e2;strokeColor=#006EAF;fontColor=#ffffff;" vertex="1" parent="1">
                    <mxGeometry x="410" y="2540" width="30" height="30" as="geometry"/>
                </mxCell>
                <mxCell id="190" value="I" style="ellipse;whiteSpace=wrap;html=1;aspect=fixed;fillColor=#1ba1e2;strokeColor=#006EAF;fontColor=#ffffff;" vertex="1" parent="1">
                    <mxGeometry x="500" y="2540" width="30" height="30" as="geometry"/>
                </mxCell>
                <mxCell id="191" value="" style="endArrow=none;html=1;entryX=0;entryY=0.5;entryDx=0;entryDy=0;exitX=1;exitY=0.5;exitDx=0;exitDy=0;" edge="1" parent="1" source="183" target="184">
                    <mxGeometry width="50" height="50" relative="1" as="geometry">
                        <mxPoint x="520" y="2590" as="sourcePoint"/>
                        <mxPoint x="610" y="2470" as="targetPoint"/>
                    </mxGeometry>
                </mxCell>
                <mxCell id="192" value="" style="endArrow=none;html=1;entryX=0;entryY=0.5;entryDx=0;entryDy=0;exitX=1;exitY=0.5;exitDx=0;exitDy=0;" edge="1" parent="1" source="182" target="183">
                    <mxGeometry width="50" height="50" relative="1" as="geometry">
                        <mxPoint x="450.00000000001364" y="2385" as="sourcePoint"/>
                        <mxPoint x="509.9999999999868" y="2385" as="targetPoint"/>
                    </mxGeometry>
                </mxCell>
                <mxCell id="193" value="" style="endArrow=none;html=1;entryX=0;entryY=1;entryDx=0;entryDy=0;exitX=1;exitY=0;exitDx=0;exitDy=0;" edge="1" parent="1" source="186" target="184">
                    <mxGeometry width="50" height="50" relative="1" as="geometry">
                        <mxPoint x="460.00000000001364" y="2395" as="sourcePoint"/>
                        <mxPoint x="519.9999999999868" y="2395" as="targetPoint"/>
                    </mxGeometry>
                </mxCell>
                <mxCell id="194" value="" style="endArrow=none;html=1;entryX=0.5;entryY=0;entryDx=0;entryDy=0;exitX=0.5;exitY=1;exitDx=0;exitDy=0;" edge="1" parent="1" source="182" target="185">
                    <mxGeometry width="50" height="50" relative="1" as="geometry">
                        <mxPoint x="470.00000000001364" y="2405" as="sourcePoint"/>
                        <mxPoint x="529.9999999999868" y="2405" as="targetPoint"/>
                    </mxGeometry>
                </mxCell>
                <mxCell id="195" value="" style="endArrow=none;html=1;entryX=0;entryY=0;entryDx=0;entryDy=0;exitX=1;exitY=1;exitDx=0;exitDy=0;" edge="1" parent="1" source="182" target="186">
                    <mxGeometry width="50" height="50" relative="1" as="geometry">
                        <mxPoint x="480.00000000001364" y="2415" as="sourcePoint"/>
                        <mxPoint x="539.9999999999868" y="2415" as="targetPoint"/>
                    </mxGeometry>
                </mxCell>
                <mxCell id="196" value="" style="endArrow=none;html=1;entryX=0.5;entryY=0;entryDx=0;entryDy=0;exitX=0.5;exitY=1;exitDx=0;exitDy=0;" edge="1" parent="1" source="187" target="190">
                    <mxGeometry width="50" height="50" relative="1" as="geometry">
                        <mxPoint x="490.00000000001364" y="2425" as="sourcePoint"/>
                        <mxPoint x="549.9999999999868" y="2425" as="targetPoint"/>
                    </mxGeometry>
                </mxCell>
                <mxCell id="197" value="" style="endArrow=none;html=1;entryX=0.5;entryY=0;entryDx=0;entryDy=0;exitX=0.5;exitY=1;exitDx=0;exitDy=0;" edge="1" parent="1" source="185" target="188">
                    <mxGeometry width="50" height="50" relative="1" as="geometry">
                        <mxPoint x="500.00000000001364" y="2435" as="sourcePoint"/>
                        <mxPoint x="559.9999999999868" y="2435" as="targetPoint"/>
                    </mxGeometry>
                </mxCell>
                <mxCell id="198" value="" style="endArrow=none;html=1;entryX=0;entryY=0.5;entryDx=0;entryDy=0;exitX=1;exitY=0.5;exitDx=0;exitDy=0;" edge="1" parent="1" source="188" target="189">
                    <mxGeometry width="50" height="50" relative="1" as="geometry">
                        <mxPoint x="510.00000000001364" y="2445" as="sourcePoint"/>
                        <mxPoint x="569.9999999999868" y="2445" as="targetPoint"/>
                    </mxGeometry>
                </mxCell>
                <mxCell id="199" value="" style="endArrow=none;html=1;exitX=0.5;exitY=1;exitDx=0;exitDy=0;entryX=0.5;entryY=0;entryDx=0;entryDy=0;" edge="1" parent="1" source="186" target="189">
                    <mxGeometry width="50" height="50" relative="1" as="geometry">
                        <mxPoint x="520.0000000000136" y="2455" as="sourcePoint"/>
                        <mxPoint x="570" y="2470" as="targetPoint"/>
                    </mxGeometry>
                </mxCell>
                <mxCell id="200" value="" style="endArrow=none;html=1;entryX=0;entryY=0;entryDx=0;entryDy=0;exitX=1;exitY=1;exitDx=0;exitDy=0;" edge="1" parent="1" source="186" target="190">
                    <mxGeometry width="50" height="50" relative="1" as="geometry">
                        <mxPoint x="530.0000000000136" y="2465" as="sourcePoint"/>
                        <mxPoint x="589.9999999999868" y="2465" as="targetPoint"/>
                    </mxGeometry>
                </mxCell>
                <mxCell id="201" value="" style="endArrow=none;html=1;entryX=0;entryY=0;entryDx=0;entryDy=0;exitX=1;exitY=1;exitDx=0;exitDy=0;" edge="1" parent="1" source="185" target="189">
                    <mxGeometry width="50" height="50" relative="1" as="geometry">
                        <mxPoint x="445.6066017178173" y="2485.6066017178173" as="sourcePoint"/>
                        <mxPoint x="514.3933982821829" y="2554.3933982821827" as="targetPoint"/>
                    </mxGeometry>
                </mxCell>
                <mxCell id="203" value="C" style="rounded=1;whiteSpace=wrap;html=1;fillStyle=auto;" vertex="1" parent="1">
                    <mxGeometry x="560" y="755" width="120" height="60" as="geometry"/>
                </mxCell>
                <mxCell id="204" value="C,B,E" style="rounded=1;whiteSpace=wrap;html=1;fillStyle=auto;" vertex="1" parent="1">
                    <mxGeometry x="560" y="995" width="120" height="60" as="geometry"/>
                </mxCell>
                <mxCell id="206" value="C,B,E,A" style="rounded=1;whiteSpace=wrap;html=1;fillStyle=auto;" vertex="1" parent="1">
                    <mxGeometry x="560" y="1235" width="120" height="60" as="geometry"/>
                </mxCell>
                <mxCell id="207" value="C,B,E,A,I" style="rounded=1;whiteSpace=wrap;html=1;fillStyle=auto;" vertex="1" parent="1">
                    <mxGeometry x="560" y="1475" width="120" height="60" as="geometry"/>
                </mxCell>
                <mxCell id="208" value="A" style="ellipse;whiteSpace=wrap;html=1;aspect=fixed;fillColor=#1ba1e2;strokeColor=#006EAF;fontColor=#ffffff;" vertex="1" parent="1">
                    <mxGeometry x="320" y="1160" width="30" height="30" as="geometry"/>
                </mxCell>
                <mxCell id="209" value="B" style="ellipse;whiteSpace=wrap;html=1;aspect=fixed;fillColor=#1ba1e2;strokeColor=#006EAF;fontColor=#ffffff;fillStyle=auto;" vertex="1" parent="1">
                    <mxGeometry x="410" y="1160" width="30" height="30" as="geometry"/>
                </mxCell>
                <mxCell id="210" value="C" style="ellipse;whiteSpace=wrap;html=1;aspect=fixed;fillColor=#1ba1e2;fontColor=#ffffff;strokeColor=#006EAF;" vertex="1" parent="1">
                    <mxGeometry x="500" y="1160" width="30" height="30" as="geometry"/>
                </mxCell>
                <mxCell id="211" value="D" style="ellipse;whiteSpace=wrap;html=1;aspect=fixed;" vertex="1" parent="1">
                    <mxGeometry x="320" y="1250" width="30" height="30" as="geometry"/>
                </mxCell>
                <mxCell id="212" value="E" style="ellipse;whiteSpace=wrap;html=1;aspect=fixed;fillColor=#1ba1e2;strokeColor=#006EAF;fontColor=#ffffff;fillStyle=auto;" vertex="1" parent="1">
                    <mxGeometry x="410" y="1250" width="30" height="30" as="geometry"/>
                </mxCell>
                <mxCell id="213" value="F" style="ellipse;whiteSpace=wrap;html=1;aspect=fixed;" vertex="1" parent="1">
                    <mxGeometry x="500" y="1250" width="30" height="30" as="geometry"/>
                </mxCell>
                <mxCell id="214" value="G&lt;span style=&quot;color: rgba(0, 0, 0, 0); font-family: monospace; font-size: 0px; text-align: start;&quot;&gt;%3CmxGraphModel%3E%3Croot%3E%3CmxCell%20id%3D%220%22%2F%3E%3CmxCell%20id%3D%221%22%20parent%3D%220%22%2F%3E%3CmxCell%20id%3D%222%22%20value%3D%22A%22%20style%3D%22ellipse%3BwhiteSpace%3Dwrap%3Bhtml%3D1%3Baspect%3Dfixed%3B%22%20vertex%3D%221%22%20parent%3D%221%22%3E%3CmxGeometry%20x%3D%22230%22%20y%3D%22190%22%20width%3D%2230%22%20height%3D%2230%22%20as%3D%22geometry%22%2F%3E%3C%2FmxCell%3E%3C%2Froot%3E%3C%2FmxGraphModel%3E&lt;/span&gt;" style="ellipse;whiteSpace=wrap;html=1;aspect=fixed;" vertex="1" parent="1">
                    <mxGeometry x="320" y="1340" width="30" height="30" as="geometry"/>
                </mxCell>
                <mxCell id="215" value="H" style="ellipse;whiteSpace=wrap;html=1;aspect=fixed;fillColor=#dae8fc;strokeColor=#6c8ebf;" vertex="1" parent="1">
                    <mxGeometry x="410" y="1340" width="30" height="30" as="geometry"/>
                </mxCell>
                <mxCell id="216" value="I" style="ellipse;whiteSpace=wrap;html=1;aspect=fixed;fillColor=#dae8fc;strokeColor=#6c8ebf;" vertex="1" parent="1">
                    <mxGeometry x="500" y="1340" width="30" height="30" as="geometry"/>
                </mxCell>
                <mxCell id="217" value="" style="endArrow=none;html=1;entryX=0;entryY=0.5;entryDx=0;entryDy=0;exitX=1;exitY=0.5;exitDx=0;exitDy=0;" edge="1" parent="1" source="209" target="210">
                    <mxGeometry width="50" height="50" relative="1" as="geometry">
                        <mxPoint x="520" y="1390" as="sourcePoint"/>
                        <mxPoint x="610" y="1270" as="targetPoint"/>
                    </mxGeometry>
                </mxCell>
                <mxCell id="218" value="" style="endArrow=none;html=1;entryX=0;entryY=0.5;entryDx=0;entryDy=0;exitX=1;exitY=0.5;exitDx=0;exitDy=0;" edge="1" parent="1" source="208" target="209">
                    <mxGeometry width="50" height="50" relative="1" as="geometry">
                        <mxPoint x="450.00000000001364" y="1185" as="sourcePoint"/>
                        <mxPoint x="509.9999999999868" y="1185" as="targetPoint"/>
                    </mxGeometry>
                </mxCell>
                <mxCell id="219" value="" style="endArrow=none;html=1;entryX=0;entryY=1;entryDx=0;entryDy=0;exitX=1;exitY=0;exitDx=0;exitDy=0;" edge="1" parent="1" source="212" target="210">
                    <mxGeometry width="50" height="50" relative="1" as="geometry">
                        <mxPoint x="460.00000000001364" y="1195" as="sourcePoint"/>
                        <mxPoint x="519.9999999999868" y="1195" as="targetPoint"/>
                    </mxGeometry>
                </mxCell>
                <mxCell id="220" value="" style="endArrow=none;html=1;entryX=0.5;entryY=0;entryDx=0;entryDy=0;exitX=0.5;exitY=1;exitDx=0;exitDy=0;" edge="1" parent="1" source="208" target="211">
                    <mxGeometry width="50" height="50" relative="1" as="geometry">
                        <mxPoint x="470.00000000001364" y="1205" as="sourcePoint"/>
                        <mxPoint x="529.9999999999868" y="1205" as="targetPoint"/>
                    </mxGeometry>
                </mxCell>
                <mxCell id="221" value="" style="endArrow=none;html=1;entryX=0;entryY=0;entryDx=0;entryDy=0;exitX=1;exitY=1;exitDx=0;exitDy=0;" edge="1" parent="1" source="208" target="212">
                    <mxGeometry width="50" height="50" relative="1" as="geometry">
                        <mxPoint x="480.00000000001364" y="1215" as="sourcePoint"/>
                        <mxPoint x="539.9999999999868" y="1215" as="targetPoint"/>
                    </mxGeometry>
                </mxCell>
                <mxCell id="222" value="" style="endArrow=none;html=1;entryX=0.5;entryY=0;entryDx=0;entryDy=0;exitX=0.5;exitY=1;exitDx=0;exitDy=0;" edge="1" parent="1" source="213" target="216">
                    <mxGeometry width="50" height="50" relative="1" as="geometry">
                        <mxPoint x="490.00000000001364" y="1225" as="sourcePoint"/>
                        <mxPoint x="549.9999999999868" y="1225" as="targetPoint"/>
                    </mxGeometry>
                </mxCell>
                <mxCell id="223" value="" style="endArrow=none;html=1;entryX=0.5;entryY=0;entryDx=0;entryDy=0;exitX=0.5;exitY=1;exitDx=0;exitDy=0;" edge="1" parent="1" source="211" target="214">
                    <mxGeometry width="50" height="50" relative="1" as="geometry">
                        <mxPoint x="500.00000000001364" y="1235" as="sourcePoint"/>
                        <mxPoint x="559.9999999999868" y="1235" as="targetPoint"/>
                    </mxGeometry>
                </mxCell>
                <mxCell id="224" value="" style="endArrow=none;html=1;entryX=0;entryY=0.5;entryDx=0;entryDy=0;exitX=1;exitY=0.5;exitDx=0;exitDy=0;" edge="1" parent="1" source="214" target="215">
                    <mxGeometry width="50" height="50" relative="1" as="geometry">
                        <mxPoint x="510.00000000001364" y="1245" as="sourcePoint"/>
                        <mxPoint x="569.9999999999868" y="1245" as="targetPoint"/>
                    </mxGeometry>
                </mxCell>
                <mxCell id="225" value="" style="endArrow=none;html=1;exitX=0.5;exitY=1;exitDx=0;exitDy=0;entryX=0.5;entryY=0;entryDx=0;entryDy=0;" edge="1" parent="1" source="212" target="215">
                    <mxGeometry width="50" height="50" relative="1" as="geometry">
                        <mxPoint x="520.0000000000136" y="1255" as="sourcePoint"/>
                        <mxPoint x="570" y="1270" as="targetPoint"/>
                    </mxGeometry>
                </mxCell>
                <mxCell id="226" value="" style="endArrow=none;html=1;entryX=0;entryY=0;entryDx=0;entryDy=0;exitX=1;exitY=1;exitDx=0;exitDy=0;" edge="1" parent="1" source="212" target="216">
                    <mxGeometry width="50" height="50" relative="1" as="geometry">
                        <mxPoint x="530.0000000000136" y="1265" as="sourcePoint"/>
                        <mxPoint x="589.9999999999868" y="1265" as="targetPoint"/>
                    </mxGeometry>
                </mxCell>
                <mxCell id="227" value="" style="endArrow=none;html=1;entryX=0;entryY=0;entryDx=0;entryDy=0;exitX=1;exitY=1;exitDx=0;exitDy=0;" edge="1" parent="1" source="211" target="215">
                    <mxGeometry width="50" height="50" relative="1" as="geometry">
                        <mxPoint x="445.6066017178173" y="1285.6066017178173" as="sourcePoint"/>
                        <mxPoint x="514.3933982821829" y="1354.393398282183" as="targetPoint"/>
                    </mxGeometry>
                </mxCell>
                <mxCell id="228" value="C,B,E,A,I,F" style="rounded=1;whiteSpace=wrap;html=1;fillStyle=auto;" vertex="1" parent="1">
                    <mxGeometry x="560" y="1715" width="120" height="60" as="geometry"/>
                </mxCell>
                <mxCell id="229" value="C,B,E,A,I,F,H" style="rounded=1;whiteSpace=wrap;html=1;fillStyle=auto;" vertex="1" parent="1">
                    <mxGeometry x="560" y="1955" width="120" height="60" as="geometry"/>
                </mxCell>
                <mxCell id="230" value="C,B,E,A,I,F,H,D" style="rounded=1;whiteSpace=wrap;html=1;fillStyle=auto;" vertex="1" parent="1">
                    <mxGeometry x="560" y="2195" width="120" height="60" as="geometry"/>
                </mxCell>
                <mxCell id="231" value="C,B,E,A,I,F,H,D,G" style="rounded=1;whiteSpace=wrap;html=1;fillStyle=auto;" vertex="1" parent="1">
                    <mxGeometry x="560" y="2435" width="120" height="60" as="geometry"/>
                </mxCell>
            </root>
        </mxGraphModel>
    </diagram>
</mxfile>